<?xml version="1.0" encoding="utf-8"?>
<!-- Generator: Adobe Illustrator 23.0.4, SVG Export Plug-In . SVG Version: 6.00 Build 0)  -->
<svg version="1.1" xmlns="http://www.w3.org/2000/svg" xmlns:xlink="http://www.w3.org/1999/xlink" x="0px" y="0px"
	 viewBox="0 0 644 307" style="enable-background:new 0 0 644 307;" xml:space="preserve">
<style type="text/css">
	.st0{fill:#4381EF;}
	.st1{fill:#A7DBEE;}
	.st2{fill:#4355F1;}
	.st3{fill:#09B9E5;}
	.st4{opacity:0.5;fill:#FFFFFF;stroke:#09B9E5;stroke-width:0.6501;stroke-miterlimit:10;}
	.st5{opacity:0.5;fill:#AFDDEF;}
	.st6{opacity:0.5;}
</style>
<g id="wall_x5F_T_x5F_C">
	<rect x="183.4" y="175" class="st0" width="296.4" height="130.7"/>
</g>
<g id="glass_x5F_C_1_">
	<rect x="186" y="175" class="st1" width="52" height="59.2"/>
	<rect x="244.5" y="175" class="st1" width="50.1" height="59.2"/>
	<rect x="301.1" y="175" class="st1" width="50.1" height="59.2"/>
	<rect x="357.6" y="175" class="st1" width="50.1" height="59.2"/>
	<rect x="415.5" y="175" class="st1" width="50.1" height="59.2"/>
	<rect x="415.5" y="237.4" class="st1" width="50.1" height="69.6"/>
	<rect x="357.6" y="237.4" class="st1" width="50.1" height="69.6"/>
	<rect x="301.1" y="237.4" class="st1" width="50.1" height="69.6"/>
	<rect x="244.5" y="237.4" class="st1" width="50.1" height="69.6"/>
	<rect x="186.7" y="237.4" class="st1" width="51.4" height="68.3"/>
</g>
<g id="Bar_x5F_R_x5F_C">
	<path class="st2" d="M183.4,171.3v-4.8c0-2.1,1.7-3.8,3.8-3.8h282c2.1,0,3.8,1.7,3.8,3.8v4.8c0,2.1-1.7,3.8-3.8,3.8h-282
		C185.1,175,183.4,173.4,183.4,171.3z"/>
</g>
<g id="wall_x5F_Y_x5F_L_x5F_Ld">
	<path class="st0" d="M181.6,307H0.3V118.4c0-3.2,2.6-5.7,5.7-5.7h175.6c3.2,0,5.7,2.6,5.7,5.7v182.9
		C187.3,304.4,184.7,307,181.6,307z"/>
</g>
<g id="mur_x5F_R_x5F_L">
	<path class="st2" d="M181.6,307H4.6V122.9c0-3.2,2.6-5.7,5.7-5.7h171.2c3.2,0,5.7,2.6,5.7,5.7v178.3
		C187.3,304.4,184.7,307,181.6,307z"/>
</g>
<g id="mur_x5F_Y_x5F_L_x5F_S">
	<path class="st0" d="M186.8,307H37.1V165.7c0-1.7,1.4-3.1,3.1-3.1h147.1v143.8C187.3,306.8,187.1,307,186.8,307z"/>
</g>
<g id="Wall_x5F_R_x5F_R">
	<path class="st2" d="M551.4,0.9l-86.5,62.7c-0.8,0.6-1.3,1.6-1.3,2.6V307H643V66.2c0-1-0.5-2-1.3-2.6L555.2,0.9
		C554.1,0.1,552.5,0.1,551.4,0.9z"/>
</g>
<g id="Roof">
	<path class="st0" d="M463.6,64.5l87.7-63.6c1.2-0.9,2.8-0.9,4,0L643,64.5c1.1,0.8,0.5,2.5-0.8,2.5l0,0c-0.3,0-0.6-0.1-0.8-0.3
		L555.3,5c-1.2-0.8-2.8-0.8-3.9,0l-86.1,61.8c-0.2,0.2-0.5,0.3-0.8,0.3l0,0C463.1,67,462.5,65.3,463.6,64.5z"/>
</g>
<g id="Circle_x5F_Y">
	<g>
		<circle class="st0" cx="553" cy="45.4" r="17.2"/>
	</g>
</g>
<g id="Bar_x5F_Y">
	<path class="st0" d="M625.4,217l0-5.5c0-1.3-1-2.4-2.2-2.4L483,209.8c-1.2,0-2.2,1.1-2.2,2.4l0,5.5l0,5.5c0,1.3,1,2.4,2.2,2.4
		l140.2-0.7c1.2,0,2.2-1.1,2.2-2.4L625.4,217z"/>
</g>
<g id="brick">
	<g>
		<g>
			<g>
				<path class="st0" d="M495.9,99.6h-8.3c-0.9,0-1.7-0.7-1.7-1.7v-1.7c0-0.9,0.7-1.7,1.7-1.7h8.3c0.9,0,1.7,0.7,1.7,1.7V98
					C497.5,98.9,496.8,99.6,495.9,99.6z"/>
				<path class="st0" d="M495.9,76.7h-8.3c-0.9,0-1.7-0.7-1.7-1.7v-1.7c0-0.9,0.7-1.7,1.7-1.7h8.3c0.9,0,1.7,0.7,1.7,1.7V75
					C497.5,75.9,496.8,76.7,495.9,76.7z"/>
				<path class="st0" d="M495.9,88.2h-8.3c-0.9,0-1.7-0.7-1.7-1.7v-1.7c0-0.9,0.7-1.7,1.7-1.7h8.3c0.9,0,1.7,0.7,1.7,1.7v1.7
					C497.5,87.4,496.8,88.2,495.9,88.2z"/>
				<path class="st0" d="M514.8,99.6h-8.3c-0.9,0-1.7-0.7-1.7-1.7v-1.7c0-0.9,0.7-1.7,1.7-1.7h8.3c0.9,0,1.7,0.7,1.7,1.7V98
					C516.5,98.9,515.7,99.6,514.8,99.6z"/>
				<path class="st0" d="M514.8,76.7h-8.3c-0.9,0-1.7-0.7-1.7-1.7v-1.7c0-0.9,0.7-1.7,1.7-1.7h8.3c0.9,0,1.7,0.7,1.7,1.7V75
					C516.5,75.9,515.7,76.7,514.8,76.7z"/>
				<path class="st0" d="M514.8,88.2h-8.3c-0.9,0-1.7-0.7-1.7-1.7v-1.7c0-0.9,0.7-1.7,1.7-1.7h8.3c0.9,0,1.7,0.7,1.7,1.7v1.7
					C516.5,87.4,515.7,88.2,514.8,88.2z"/>
			</g>
			<g>
				<path class="st0" d="M495.9,191.3h-8.3c-0.9,0-1.7-0.7-1.7-1.7v-1.7c0-0.9,0.7-1.7,1.7-1.7h8.3c0.9,0,1.7,0.7,1.7,1.7v1.7
					C497.5,190.5,496.8,191.3,495.9,191.3z"/>
				<path class="st0" d="M495.9,168.4h-8.3c-0.9,0-1.7-0.7-1.7-1.7V165c0-0.9,0.7-1.7,1.7-1.7h8.3c0.9,0,1.7,0.7,1.7,1.7v1.7
					C497.5,167.6,496.8,168.4,495.9,168.4z"/>
				<path class="st0" d="M495.9,179.8h-8.3c-0.9,0-1.7-0.7-1.7-1.7v-1.7c0-0.9,0.7-1.7,1.7-1.7h8.3c0.9,0,1.7,0.7,1.7,1.7v1.7
					C497.5,179.1,496.8,179.8,495.9,179.8z"/>
				<path class="st0" d="M514.8,191.3h-8.3c-0.9,0-1.7-0.7-1.7-1.7v-1.7c0-0.9,0.7-1.7,1.7-1.7h8.3c0.9,0,1.7,0.7,1.7,1.7v1.7
					C516.5,190.5,515.7,191.3,514.8,191.3z"/>
				<path class="st0" d="M514.8,168.4h-8.3c-0.9,0-1.7-0.7-1.7-1.7V165c0-0.9,0.7-1.7,1.7-1.7h8.3c0.9,0,1.7,0.7,1.7,1.7v1.7
					C516.5,167.6,515.7,168.4,514.8,168.4z"/>
				<path class="st0" d="M514.8,179.8h-8.3c-0.9,0-1.7-0.7-1.7-1.7v-1.7c0-0.9,0.7-1.7,1.7-1.7h8.3c0.9,0,1.7,0.7,1.7,1.7v1.7
					C516.5,179.1,515.7,179.8,514.8,179.8z"/>
			</g>
			<g>
				<path class="st0" d="M495.9,145.1h-8.3c-0.9,0-1.7-0.7-1.7-1.7v-1.7c0-0.9,0.7-1.7,1.7-1.7h8.3c0.9,0,1.7,0.7,1.7,1.7v1.7
					C497.5,144.4,496.8,145.1,495.9,145.1z"/>
				<path class="st0" d="M495.9,122.2h-8.3c-0.9,0-1.7-0.7-1.7-1.7v-1.7c0-0.9,0.7-1.7,1.7-1.7h8.3c0.9,0,1.7,0.7,1.7,1.7v1.7
					C497.5,121.5,496.8,122.2,495.9,122.2z"/>
				<path class="st0" d="M495.9,133.7h-8.3c-0.9,0-1.7-0.7-1.7-1.7v-1.7c0-0.9,0.7-1.7,1.7-1.7h8.3c0.9,0,1.7,0.7,1.7,1.7v1.7
					C497.5,132.9,496.8,133.7,495.9,133.7z"/>
				<path class="st0" d="M514.8,145.1h-8.3c-0.9,0-1.7-0.7-1.7-1.7v-1.7c0-0.9,0.7-1.7,1.7-1.7h8.3c0.9,0,1.7,0.7,1.7,1.7v1.7
					C516.5,144.4,515.7,145.1,514.8,145.1z"/>
				<path class="st0" d="M514.8,122.2h-8.3c-0.9,0-1.7-0.7-1.7-1.7v-1.7c0-0.9,0.7-1.7,1.7-1.7h8.3c0.9,0,1.7,0.7,1.7,1.7v1.7
					C516.5,121.5,515.7,122.2,514.8,122.2z"/>
				<path class="st0" d="M514.8,133.7h-8.3c-0.9,0-1.7-0.7-1.7-1.7v-1.7c0-0.9,0.7-1.7,1.7-1.7h8.3c0.9,0,1.7,0.7,1.7,1.7v1.7
					C516.5,132.9,515.7,133.7,514.8,133.7z"/>
			</g>
		</g>
		<g>
			<g>
				<path class="st0" d="M599.9,99.6h-8.3c-0.9,0-1.7-0.7-1.7-1.7v-1.7c0-0.9,0.7-1.7,1.7-1.7h8.3c0.9,0,1.7,0.7,1.7,1.7V98
					C601.6,98.9,600.8,99.6,599.9,99.6z"/>
				<path class="st0" d="M599.9,76.7h-8.3c-0.9,0-1.7-0.7-1.7-1.7v-1.7c0-0.9,0.7-1.7,1.7-1.7h8.3c0.9,0,1.7,0.7,1.7,1.7V75
					C601.6,75.9,600.8,76.7,599.9,76.7z"/>
				<path class="st0" d="M599.9,88.2h-8.3c-0.9,0-1.7-0.7-1.7-1.7v-1.7c0-0.9,0.7-1.7,1.7-1.7h8.3c0.9,0,1.7,0.7,1.7,1.7v1.7
					C601.6,87.4,600.8,88.2,599.9,88.2z"/>
				<path class="st0" d="M618.8,99.6h-8.3c-0.9,0-1.7-0.7-1.7-1.7v-1.7c0-0.9,0.7-1.7,1.7-1.7h8.3c0.9,0,1.7,0.7,1.7,1.7V98
					C620.5,98.9,619.7,99.6,618.8,99.6z"/>
				<path class="st0" d="M618.8,76.7h-8.3c-0.9,0-1.7-0.7-1.7-1.7v-1.7c0-0.9,0.7-1.7,1.7-1.7h8.3c0.9,0,1.7,0.7,1.7,1.7V75
					C620.5,75.9,619.7,76.7,618.8,76.7z"/>
				<path class="st0" d="M618.8,88.2h-8.3c-0.9,0-1.7-0.7-1.7-1.7v-1.7c0-0.9,0.7-1.7,1.7-1.7h8.3c0.9,0,1.7,0.7,1.7,1.7v1.7
					C620.5,87.4,619.7,88.2,618.8,88.2z"/>
			</g>
			<g>
				<path class="st0" d="M599.9,191.3h-8.3c-0.9,0-1.7-0.7-1.7-1.7v-1.7c0-0.9,0.7-1.7,1.7-1.7h8.3c0.9,0,1.7,0.7,1.7,1.7v1.7
					C601.6,190.5,600.8,191.3,599.9,191.3z"/>
				<path class="st0" d="M599.9,168.4h-8.3c-0.9,0-1.7-0.7-1.7-1.7V165c0-0.9,0.7-1.7,1.7-1.7h8.3c0.9,0,1.7,0.7,1.7,1.7v1.7
					C601.6,167.6,600.8,168.4,599.9,168.4z"/>
				<path class="st0" d="M599.9,179.8h-8.3c-0.9,0-1.7-0.7-1.7-1.7v-1.7c0-0.9,0.7-1.7,1.7-1.7h8.3c0.9,0,1.7,0.7,1.7,1.7v1.7
					C601.6,179.1,600.8,179.8,599.9,179.8z"/>
				<path class="st0" d="M618.8,191.3h-8.3c-0.9,0-1.7-0.7-1.7-1.7v-1.7c0-0.9,0.7-1.7,1.7-1.7h8.3c0.9,0,1.7,0.7,1.7,1.7v1.7
					C620.5,190.5,619.7,191.3,618.8,191.3z"/>
				<path class="st0" d="M618.8,168.4h-8.3c-0.9,0-1.7-0.7-1.7-1.7V165c0-0.9,0.7-1.7,1.7-1.7h8.3c0.9,0,1.7,0.7,1.7,1.7v1.7
					C620.5,167.6,619.7,168.4,618.8,168.4z"/>
				<path class="st0" d="M618.8,179.8h-8.3c-0.9,0-1.7-0.7-1.7-1.7v-1.7c0-0.9,0.7-1.7,1.7-1.7h8.3c0.9,0,1.7,0.7,1.7,1.7v1.7
					C620.5,179.1,619.7,179.8,618.8,179.8z"/>
			</g>
			<g>
				<path class="st0" d="M599.9,145.1h-8.3c-0.9,0-1.7-0.7-1.7-1.7v-1.7c0-0.9,0.7-1.7,1.7-1.7h8.3c0.9,0,1.7,0.7,1.7,1.7v1.7
					C601.6,144.4,600.8,145.1,599.9,145.1z"/>
				<path class="st0" d="M599.9,122.2h-8.3c-0.9,0-1.7-0.7-1.7-1.7v-1.7c0-0.9,0.7-1.7,1.7-1.7h8.3c0.9,0,1.7,0.7,1.7,1.7v1.7
					C601.6,121.5,600.8,122.2,599.9,122.2z"/>
				<path class="st0" d="M599.9,133.7h-8.3c-0.9,0-1.7-0.7-1.7-1.7v-1.7c0-0.9,0.7-1.7,1.7-1.7h8.3c0.9,0,1.7,0.7,1.7,1.7v1.7
					C601.6,132.9,600.8,133.7,599.9,133.7z"/>
				<path class="st0" d="M618.8,145.1h-8.3c-0.9,0-1.7-0.7-1.7-1.7v-1.7c0-0.9,0.7-1.7,1.7-1.7h8.3c0.9,0,1.7,0.7,1.7,1.7v1.7
					C620.5,144.4,619.7,145.1,618.8,145.1z"/>
				<path class="st0" d="M618.8,122.2h-8.3c-0.9,0-1.7-0.7-1.7-1.7v-1.7c0-0.9,0.7-1.7,1.7-1.7h8.3c0.9,0,1.7,0.7,1.7,1.7v1.7
					C620.5,121.5,619.7,122.2,618.8,122.2z"/>
				<path class="st0" d="M618.8,133.7h-8.3c-0.9,0-1.7-0.7-1.7-1.7v-1.7c0-0.9,0.7-1.7,1.7-1.7h8.3c0.9,0,1.7,0.7,1.7,1.7v1.7
					C620.5,132.9,619.7,133.7,618.8,133.7z"/>
			</g>
		</g>
		<g>
			<g>
				<path class="st0" d="M547.2,99.6h-8.3c-0.9,0-1.7-0.7-1.7-1.7v-1.7c0-0.9,0.7-1.7,1.7-1.7h8.3c0.9,0,1.7,0.7,1.7,1.7V98
					C548.9,98.9,548.1,99.6,547.2,99.6z"/>
				<path class="st0" d="M547.2,76.7h-8.3c-0.9,0-1.7-0.7-1.7-1.7v-1.7c0-0.9,0.7-1.7,1.7-1.7h8.3c0.9,0,1.7,0.7,1.7,1.7V75
					C548.9,75.9,548.1,76.7,547.2,76.7z"/>
				<path class="st0" d="M547.2,88.2h-8.3c-0.9,0-1.7-0.7-1.7-1.7v-1.7c0-0.9,0.7-1.7,1.7-1.7h8.3c0.9,0,1.7,0.7,1.7,1.7v1.7
					C548.9,87.4,548.1,88.2,547.2,88.2z"/>
				<path class="st0" d="M566.1,99.6h-8.3c-0.9,0-1.7-0.7-1.7-1.7v-1.7c0-0.9,0.7-1.7,1.7-1.7h8.3c0.9,0,1.7,0.7,1.7,1.7V98
					C567.8,98.9,567.1,99.6,566.1,99.6z"/>
				<path class="st0" d="M566.1,76.7h-8.3c-0.9,0-1.7-0.7-1.7-1.7v-1.7c0-0.9,0.7-1.7,1.7-1.7h8.3c0.9,0,1.7,0.7,1.7,1.7V75
					C567.8,75.9,567.1,76.7,566.1,76.7z"/>
				<path class="st0" d="M566.1,88.2h-8.3c-0.9,0-1.7-0.7-1.7-1.7v-1.7c0-0.9,0.7-1.7,1.7-1.7h8.3c0.9,0,1.7,0.7,1.7,1.7v1.7
					C567.8,87.4,567.1,88.2,566.1,88.2z"/>
			</g>
			<g>
				<path class="st0" d="M547.2,191.3h-8.3c-0.9,0-1.7-0.7-1.7-1.7v-1.7c0-0.9,0.7-1.7,1.7-1.7h8.3c0.9,0,1.7,0.7,1.7,1.7v1.7
					C548.9,190.5,548.1,191.3,547.2,191.3z"/>
				<path class="st0" d="M547.2,168.4h-8.3c-0.9,0-1.7-0.7-1.7-1.7V165c0-0.9,0.7-1.7,1.7-1.7h8.3c0.9,0,1.7,0.7,1.7,1.7v1.7
					C548.9,167.6,548.1,168.4,547.2,168.4z"/>
				<path class="st0" d="M547.2,179.8h-8.3c-0.9,0-1.7-0.7-1.7-1.7v-1.7c0-0.9,0.7-1.7,1.7-1.7h8.3c0.9,0,1.7,0.7,1.7,1.7v1.7
					C548.9,179.1,548.1,179.8,547.2,179.8z"/>
				<path class="st0" d="M566.1,191.3h-8.3c-0.9,0-1.7-0.7-1.7-1.7v-1.7c0-0.9,0.7-1.7,1.7-1.7h8.3c0.9,0,1.7,0.7,1.7,1.7v1.7
					C567.8,190.5,567.1,191.3,566.1,191.3z"/>
				<path class="st0" d="M566.1,168.4h-8.3c-0.9,0-1.7-0.7-1.7-1.7V165c0-0.9,0.7-1.7,1.7-1.7h8.3c0.9,0,1.7,0.7,1.7,1.7v1.7
					C567.8,167.6,567.1,168.4,566.1,168.4z"/>
				<path class="st0" d="M566.1,179.8h-8.3c-0.9,0-1.7-0.7-1.7-1.7v-1.7c0-0.9,0.7-1.7,1.7-1.7h8.3c0.9,0,1.7,0.7,1.7,1.7v1.7
					C567.8,179.1,567.1,179.8,566.1,179.8z"/>
			</g>
			<g>
				<path class="st0" d="M547.2,145.1h-8.3c-0.9,0-1.7-0.7-1.7-1.7v-1.7c0-0.9,0.7-1.7,1.7-1.7h8.3c0.9,0,1.7,0.7,1.7,1.7v1.7
					C548.9,144.4,548.1,145.1,547.2,145.1z"/>
				<path class="st0" d="M547.2,122.2h-8.3c-0.9,0-1.7-0.7-1.7-1.7v-1.7c0-0.9,0.7-1.7,1.7-1.7h8.3c0.9,0,1.7,0.7,1.7,1.7v1.7
					C548.9,121.5,548.1,122.2,547.2,122.2z"/>
				<path class="st0" d="M547.2,133.7h-8.3c-0.9,0-1.7-0.7-1.7-1.7v-1.7c0-0.9,0.7-1.7,1.7-1.7h8.3c0.9,0,1.7,0.7,1.7,1.7v1.7
					C548.9,132.9,548.1,133.7,547.2,133.7z"/>
				<path class="st0" d="M566.1,145.1h-8.3c-0.9,0-1.7-0.7-1.7-1.7v-1.7c0-0.9,0.7-1.7,1.7-1.7h8.3c0.9,0,1.7,0.7,1.7,1.7v1.7
					C567.8,144.4,567.1,145.1,566.1,145.1z"/>
				<path class="st0" d="M566.1,122.2h-8.3c-0.9,0-1.7-0.7-1.7-1.7v-1.7c0-0.9,0.7-1.7,1.7-1.7h8.3c0.9,0,1.7,0.7,1.7,1.7v1.7
					C567.8,121.5,567.1,122.2,566.1,122.2z"/>
				<path class="st0" d="M566.1,133.7h-8.3c-0.9,0-1.7-0.7-1.7-1.7v-1.7c0-0.9,0.7-1.7,1.7-1.7h8.3c0.9,0,1.7,0.7,1.7,1.7v1.7
					C567.8,132.9,567.1,133.7,566.1,133.7z"/>
			</g>
		</g>
	</g>
</g>
<g id="glass_x5F_R">
	<g>
		<path class="st3" d="M625.1,296.6H480.7c-3.3,0-6.1-2.7-6.1-6.1v-49.7c0-3.3,2.7-6.1,6.1-6.1h144.4c3.3,0,6.1,2.7,6.1,6.1v49.7
			C631.1,293.9,628.4,296.6,625.1,296.6z"/>
		<path class="st4" d="M625.6,296.6H480.5c-3.1,0-5.7-2.5-5.7-5.7v-56h156.5v56C631.3,294.1,628.8,296.6,625.6,296.6z"/>
		<path class="st5" d="M625.5,296.6H480.3c-3.1,0-5.7-2.5-5.7-5.7v-55.3h156.5v55.3C631.1,294.1,628.6,296.6,625.5,296.6z"/>
		<g class="st6">
			<defs>
				<path id="SVGID_1_" class="st6" d="M625.6,296.6H480.5c-3.1,0-5.7-2.5-5.7-5.7v-54.5h156.5v54.5
					C631.3,294.1,628.8,296.6,625.6,296.6z"/>
			</defs>
			<clipPath id="SVGID_2_">
				<use xlink:href="#SVGID_1_"  style="overflow:visible;"/>
			</clipPath>
		</g>
		<rect x="540.9" y="234.2" class="st5" width="22.8" height="63.1"/>
		<rect x="620.9" y="234.2" class="st5" width="9.8" height="63.1"/>
		<rect x="475.9" y="234.8" class="st5" width="9.8" height="63.1"/>
		<g>
			<path class="st0" d="M474.6,276.2v-0.9c0-0.5,0.4-0.9,0.9-0.9h156.2c0.5,0,0.9,0.4,0.9,0.9v0.9c0,0.5-0.4,0.9-0.9,0.9H475.5
				C475,277.1,474.6,276.7,474.6,276.2z"/>
		</g>
		<g>
			<path class="st0" d="M474.6,254.8v-0.9c0-0.5,0.4-0.9,0.9-0.9h156.2c0.5,0,0.9,0.4,0.9,0.9v0.9c0,0.5-0.4,0.9-0.9,0.9H475.5
				C475,255.6,474.6,255.3,474.6,254.8z"/>
		</g>
		<g>
			<path class="st0" d="M486.3,297.9H485c-0.7,0-1.3-0.6-1.3-1.3v-61.8c0-0.7,0.6-1.3,1.3-1.3h1.3c0.7,0,1.3,0.6,1.3,1.3v61.8
				C487.6,297.3,487.1,297.9,486.3,297.9z"/>
		</g>
		<g>
			<path class="st0" d="M522.7,298.5h-1.3c-0.7,0-1.3-0.6-1.3-1.3v-61.8c0-0.7,0.6-1.3,1.3-1.3h1.3c0.7,0,1.3,0.6,1.3,1.3v61.8
				C524,298,523.5,298.5,522.7,298.5z"/>
		</g>
		<g>
			<path class="st0" d="M541.6,297.9h-1.3c-0.7,0-1.3-0.6-1.3-1.3v-61.8c0-0.7,0.6-1.3,1.3-1.3h1.3c0.7,0,1.3,0.6,1.3,1.3v61.8
				C542.9,297.3,542.3,297.9,541.6,297.9z"/>
		</g>
		<g>
			<path class="st0" d="M621.6,297.9h-1.3c-0.7,0-1.3-0.6-1.3-1.3v-61.8c0-0.7,0.6-1.3,1.3-1.3h1.3c0.7,0,1.3,0.6,1.3,1.3v61.8
				C622.8,297.3,622.3,297.9,621.6,297.9z"/>
		</g>
		<g>
			<path class="st0" d="M564.3,297.9H563c-0.7,0-1.3-0.6-1.3-1.3v-61.8c0-0.7,0.6-1.3,1.3-1.3h1.3c0.7,0,1.3,0.6,1.3,1.3v61.8
				C565.6,297.3,565.1,297.9,564.3,297.9z"/>
		</g>
		<g>
			<path class="st0" d="M585.8,297.9h-1.3c-0.7,0-1.3-0.6-1.3-1.3v-61.8c0-0.7,0.6-1.3,1.3-1.3h1.3c0.7,0,1.3,0.6,1.3,1.3v61.8
				C587.1,297.3,586.5,297.9,585.8,297.9z"/>
		</g>
		<g>
			<path class="st0" d="M476.6,297.9h-1.3c-0.7,0-1.3-0.6-1.3-1.3v-61.8c0-0.7,0.6-1.3,1.3-1.3h1.3c0.7,0,1.3,0.6,1.3,1.3v61.8
				C477.9,297.3,477.3,297.9,476.6,297.9z"/>
		</g>
		<g>
			<path class="st0" d="M631.3,297.9H630c-0.7,0-1.3-0.6-1.3-1.3v-61.8c0-0.7,0.6-1.3,1.3-1.3h1.3c0.7,0,1.3,0.6,1.3,1.3v61.8
				C632.6,297.3,632,297.9,631.3,297.9z"/>
		</g>
		<path class="st2" d="M632.6,236.1H474v-1.7c0-0.9,0.7-1.5,1.5-1.5h155.5c0.9,0,1.5,0.7,1.5,1.5V236.1z"/>
		<path class="st2" d="M632.6,295.3H474v1.7c0,0.9,0.7,1.5,1.5,1.5h155.5c0.9,0,1.5-0.7,1.5-1.5V295.3z"/>
	</g>
</g>
<g id="_x34_win_x5F_B">
	<g>
		<path class="st2" d="M173.2,280.3H52.5c-0.6,0-1.1-0.5-1.1-1.1v-25.1c0-0.6,0.5-1.1,1.1-1.1h120.7c0.6,0,1.1,0.5,1.1,1.1v25.1
			C174.3,279.9,173.8,280.3,173.2,280.3z"/>
		<path class="st3" d="M170.5,278.2H55.3c-0.7,0-1.3-0.6-1.3-1.3v-20.8c0-0.6,0.5-1,1-1h115.4c0.6,0,1,0.5,1,1v21
			C171.6,277.7,171.1,278.2,170.5,278.2z"/>
		<path class="st4" d="M170.4,278.2H55.5c-0.7,0-1.3-0.6-1.3-1.3v-20.7c0-0.6,0.5-1,1-1h115.4c0.6,0,1,0.5,1,1v20.7
			C171.7,277.6,171.1,278.2,170.4,278.2z"/>
		<path class="st5" d="M170.5,278.1H55.3c-0.7,0-1.2-0.6-1.2-1.2v-20.5c0-0.6,0.5-1,1-1h115.4c0.6,0,1,0.5,1,1V277
			C171.6,277.6,171.1,278.1,170.5,278.1z"/>
		<g class="st6">
			<defs>
				<path id="SVGID_3_" class="st6" d="M170.5,278.3H55.1c-0.6,0-1-0.5-1-1v-21c0-0.6,0.5-1,1-1h115.4c0.6,0,1,0.5,1,1v21
					C171.6,277.8,171.1,278.3,170.5,278.3z"/>
			</defs>
			<clipPath id="SVGID_4_">
				<use xlink:href="#SVGID_3_"  style="overflow:visible;"/>
			</clipPath>
		</g>
		
			<rect x="69.3" y="264.3" transform="matrix(2.233515e-03 -1 1 2.233515e-03 -185.282 347.6555)" class="st2" width="24.6" height="4.8"/>
		
			<rect x="100.5" y="264.3" transform="matrix(2.233515e-03 -1 1 2.233515e-03 -154.1297 378.8766)" class="st2" width="24.6" height="4.8"/>
		
			<rect x="131.7" y="264.3" transform="matrix(2.233515e-03 -1 1 2.233515e-03 -122.9783 410.0985)" class="st2" width="24.6" height="4.8"/>
	</g>
</g>
<g id="_x34_win_x5F_m">
	<g>
		<path class="st2" d="M173.2,222.5H52.5c-0.6,0-1.1-0.5-1.1-1.1v-25.1c0-0.6,0.5-1.1,1.1-1.1h120.7c0.6,0,1.1,0.5,1.1,1.1v25.1
			C174.3,222,173.8,222.5,173.2,222.5z"/>
		<path class="st3" d="M170.5,220.4H55.3c-0.7,0-1.3-0.6-1.3-1.3v-20.8c0-0.6,0.5-1,1-1h115.4c0.6,0,1,0.5,1,1v21
			C171.6,219.9,171.1,220.4,170.5,220.4z"/>
		<path class="st4" d="M170.4,220.4H55.5c-0.7,0-1.3-0.6-1.3-1.3v-20.7c0-0.6,0.5-1,1-1h115.4c0.6,0,1,0.5,1,1v20.7
			C171.7,219.8,171.1,220.4,170.4,220.4z"/>
		<path class="st5" d="M170.5,220.2H55.3c-0.7,0-1.2-0.6-1.2-1.2v-20.5c0-0.6,0.5-1,1-1h115.4c0.6,0,1,0.5,1,1v20.7
			C171.6,219.8,171.1,220.2,170.5,220.2z"/>
		<g class="st6">
			<defs>
				<path id="SVGID_5_" class="st6" d="M170.5,220.4H55.1c-0.6,0-1-0.5-1-1v-21c0-0.6,0.5-1,1-1h115.4c0.6,0,1,0.5,1,1v21
					C171.6,219.9,171.1,220.4,170.5,220.4z"/>
			</defs>
			<clipPath id="SVGID_6_">
				<use xlink:href="#SVGID_5_"  style="overflow:visible;"/>
			</clipPath>
		</g>
		
			<rect x="69.3" y="206.4" transform="matrix(2.233515e-03 -1 1 2.233515e-03 -127.427 289.9295)" class="st2" width="24.6" height="4.8"/>
		
			<rect x="100.5" y="206.4" transform="matrix(2.233515e-03 -1 1 2.233515e-03 -96.2747 321.1506)" class="st2" width="24.6" height="4.8"/>
		
			<rect x="131.7" y="206.4" transform="matrix(2.233515e-03 -1 1 2.233515e-03 -65.1233 352.3725)" class="st2" width="24.6" height="4.8"/>
	</g>
</g>
<g id="_x34_win_x5F_T">
	<g>
		<path class="st0" d="M162.8,154.9H62.9c-0.6,0-1.1-0.5-1.1-1.1v-19.9c0-0.6,0.5-1.1,1.1-1.1h99.9c0.6,0,1.1,0.5,1.1,1.1v19.9
			C163.9,154.4,163.4,154.9,162.8,154.9z"/>
		<path class="st3" d="M161.6,153.6H64.2c-0.7,0-1.3-0.6-1.3-1.3v-17.3c0-0.6,0.5-1,1-1h97.6c0.6,0,1,0.5,1,1v17.5
			C162.7,153.2,162.2,153.6,161.6,153.6z"/>
		<path class="st4" d="M161.5,153.6H64.4c-0.7,0-1.3-0.6-1.3-1.3v-17.2c0-0.6,0.5-1,1-1h97.6c0.6,0,1,0.5,1,1v17.2
			C162.8,153,162.2,153.6,161.5,153.6z"/>
		<path class="st5" d="M161.6,153.5H64.2c-0.7,0-1.2-0.6-1.2-1.2v-17.1c0-0.6,0.5-1,1-1h97.6c0.6,0,1,0.5,1,1v17.3
			C162.7,153,162.2,153.5,161.6,153.5z"/>
		<g class="st6">
			<defs>
				<path id="SVGID_7_" class="st6" d="M161.7,153.7H64c-0.6,0-1-0.5-1-1v-17.5c0-0.6,0.5-1,1-1h97.6c0.6,0,1,0.5,1,1v17.5
					C162.7,153.2,162.2,153.7,161.7,153.7z"/>
			</defs>
			<clipPath id="SVGID_8_">
				<use xlink:href="#SVGID_7_"  style="overflow:visible;"/>
			</clipPath>
		</g>
		
			<rect x="75.9" y="141.8" transform="matrix(2.233515e-03 -1 1 2.233515e-03 -57.7149 229.8271)" class="st0" width="20.9" height="4.1"/>
		
			<rect x="102.4" y="141.8" transform="matrix(2.233515e-03 -1 1 2.233515e-03 -31.2776 256.3228)" class="st0" width="20.9" height="4.1"/>
		
			<rect x="128.9" y="141.8" transform="matrix(2.233515e-03 -1 1 2.233515e-03 -4.841 282.8192)" class="st0" width="20.9" height="4.1"/>
	</g>
</g>
<g id="haie">
	<g>
		<path class="st0" d="M171,307h177.4c2.2,0,4-1.8,4-4v-7.6c0-2.2-1.8-4-4-4H174.1c-1.7,0-3.1,1.4-3.1,3.1V307z"/>
	</g>
</g>
<g id="barriere">
	<path class="st2" d="M421.3,276.4H307.5c-1.1,0-1.9,0.9-1.9,2V307h117.6v-28.6C423.3,277.3,422.4,276.4,421.3,276.4z M313.3,303.6
		c0,0.5-0.4,1-1,1c-0.5,0-1-0.4-1-1v-23.4c0-0.5,0.4-1,1-1c0.5,0,1,0.4,1,1V303.6z M320.8,303.6c0,0.5-0.4,1-1,1s-1-0.4-1-1v-23.4
		c0-0.5,0.4-1,1-1s1,0.4,1,1V303.6z M328.3,303.6c0,0.5-0.4,1-1,1c-0.5,0-1-0.4-1-1v-23.4c0-0.5,0.4-1,1-1c0.5,0,1,0.4,1,1V303.6z
		 M335.8,303.6c0,0.5-0.4,1-1,1c-0.5,0-1-0.4-1-1v-23.4c0-0.5,0.4-1,1-1c0.5,0,1,0.4,1,1V303.6z M343.3,303.6c0,0.5-0.4,1-1,1
		c-0.5,0-1-0.4-1-1v-23.4c0-0.5,0.4-1,1-1c0.5,0,1,0.4,1,1V303.6z M350.8,303.6c0,0.5-0.4,1-1,1c-0.5,0-1-0.4-1-1v-23.4
		c0-0.5,0.4-1,1-1c0.5,0,1,0.4,1,1V303.6z M358.2,303.6c0,0.5-0.4,1-1,1c-0.5,0-1-0.4-1-1v-23.4c0-0.5,0.4-1,1-1c0.5,0,1,0.4,1,1
		V303.6z M365.7,303.6c0,0.5-0.4,1-1,1c-0.5,0-1-0.4-1-1v-23.4c0-0.5,0.4-1,1-1c0.5,0,1,0.4,1,1V303.6z M373.2,303.6
		c0,0.5-0.4,1-1,1c-0.5,0-1-0.4-1-1v-23.4c0-0.5,0.4-1,1-1c0.5,0,1,0.4,1,1V303.6z M380.7,303.6c0,0.5-0.4,1-1,1c-0.5,0-1-0.4-1-1
		v-23.4c0-0.5,0.4-1,1-1c0.5,0,1,0.4,1,1V303.6z M388.2,303.6c0,0.5-0.4,1-1,1s-1-0.4-1-1v-23.4c0-0.5,0.4-1,1-1s1,0.4,1,1V303.6z
		 M395.7,303.6c0,0.5-0.4,1-1,1c-0.5,0-1-0.4-1-1v-23.4c0-0.5,0.4-1,1-1c0.5,0,1,0.4,1,1V303.6z M403.1,303.6c0,0.5-0.4,1-1,1
		c-0.5,0-1-0.4-1-1v-23.4c0-0.5,0.4-1,1-1c0.5,0,1,0.4,1,1V303.6z M410.6,303.6c0,0.5-0.4,1-1,1c-0.5,0-1-0.4-1-1v-23.4
		c0-0.5,0.4-1,1-1c0.5,0,1,0.4,1,1V303.6z M418.1,303.6c0,0.5-0.4,1-1,1c-0.5,0-1-0.4-1-1v-23.4c0-0.5,0.4-1,1-1c0.5,0,1,0.4,1,1
		V303.6z"/>
</g>
</svg>
