<?xml version="1.0" encoding="utf-8"?>
<!-- Generator: Adobe Illustrator 23.0.3, SVG Export Plug-In . SVG Version: 6.00 Build 0)  -->
<svg version="1.1" id="Layer_1" xmlns="http://www.w3.org/2000/svg" xmlns:xlink="http://www.w3.org/1999/xlink" x="0px" y="0px"
	 viewBox="0 0 969.9 580" style="enable-background:new 0 0 969.9 580;" xml:space="preserve">
<style type="text/css">
	.st0{fill-rule:evenodd;clip-rule:evenodd;fill:#E0E0E0;}
	.st1{fill-rule:evenodd;clip-rule:evenodd;fill:#4355F1;}
</style>
<path class="st0" d="M969.4,528.8c-8.2,1.2-6-16.3-10.2-14.9c0.6-0.2-5.6,30.7-3.8,33.1C958.8,547.1,972.6,530.5,969.4,528.8z"/>
<path class="st0" d="M906.2,476.3c0.2-15.2-9.7-17.5-15.4-28.6c-2.5-4.8-10.3-21.9-9.6-27.3c-4-2.1-4.5,16.9-6.1,18.2
	c-5.4,4.2-9.5,0.3-15.3-4.1c-1.8-5.2,3.5-8,2.4-11.4c-4.7,0.9-9-3.2-13.7-1.7c-3.8,1.2-5.3,5.8-8.5,7.2c-7.2,3.3-9.6,0.4-17.7,7.5
	c-3.9,3.4-5.9,8.4-10.1,11.3c-7.4,5.1-38.6,8.1-24.7,26.6c4.2,20.7-8.4,32.5,17.8,25.4c8-2.2,17.6-8,26.2-7.5
	c10.7,0.6,11.9,12.2,16,13c1.6-1.4,3.2-2.7,5-3.9c0,0,0.1,7-1.2,6.2c-0.8-0.5,20.7,24.9,20.7,15c0,13.4,16.8-9.2,17.7-10.3
	C899.4,500.3,901.9,489.3,906.2,476.3z M802.1,498.7c-0.3,0.1-0.5,0.1-0.8,0.2C801.5,498.8,801.8,498.7,802.1,498.7z"/>
<path class="st0" d="M947.2,543c-1.4,11.5-18.9,10.3-21.7,20.5c-4.8,17.5,19-6.9,22.3-10C950.9,551,954.7,538,947.2,543z"/>
<path class="st0" d="M895.8,415.5c2.5,1.3,5.1,1.9,7.9,1.7c-1.1-2.7-11.2-18.5-15-19c-2.7-1.3-6.8-4.4-9.9-4.4
	c-10.3-6.3-23.7,5.4-23.2-7.2c-17-5.9,2.6,18.1,13.2,18.1c-1,0-4.3,7.6,5,6.4c6.2,6.5,8.3-2.3,11.9-1.6
	C891,410.7,891.6,412.3,895.8,415.5z"/>
<path class="st0" d="M192.4,42.6c0.5,2.8,3.5,0.3,5,1.7c-0.9,3.3-2.5,3.4-2.5,5.5c0,6.7,16.7,9,21.3,6.7c2.2-1.1,3.6-1.2,5.1-3.1
	c1.4-1.9,0.1-11.5-2.6-12.6c-4.6-1.9-3.6,9.5-8.9,9.1c-5.3-10.4,1.8-11.1,0.5-21.2c-1.9-0.3-3.8-0.5-5.7-0.8l0,0
	C192.2,35.7,184.5,30.7,192.4,42.6z"/>
<path class="st0" d="M214.7,29.2c0.1,0.8,1.1,4.1,2.5,4.1c3.2,0.2,22.4-5.2,11.4-11.5C226,20.4,214.7,27.2,214.7,29.2z"/>
<path class="st0" d="M240,31c-0.3-0.4,6.2,7.6,5.2,7.5c6,0.9,3-12.4,2.4-13.3C240.8,15,241.6,31.6,240,31z"/>
<path class="st0" d="M851.7,223.7c-4.2-0.4-3,6.6,0.1,7.2c11.5-1.2,18.5-15.8,0.3-16.6C851.9,213.7,855.4,223.7,851.7,223.7z"/>
<path class="st0" d="M692,59.8C692,59.8,692,59.8,692,59.8z"/>
<path class="st0" d="M244.2,58.1C244.2,58.2,244.2,58.2,244.2,58.1z"/>
<path class="st0" d="M230.3,45.7c-1-2.2-2.2,11.7-0.1,15c2.1,3.2,5.7-0.6,7.7,0.2c-3.5-1.4,10.7,8.8,6.4,3.1c1.9,1,0.6-6,0.6-4.1
	c0-1.4-3.3-4.7-4.1-5.9c-3.3-5.5,4.9-2.5-0.1-6.3C236.7,44.4,232.3,51.9,230.3,45.7z"/>
<path class="st0" d="M250,69.6C250,69.6,249.9,69.6,250,69.6z"/>
<path class="st0" d="M254.8,45.4c-0.8-0.2,6.6-18.1-1.5-14.6C248,33.1,249.5,44,254.8,45.4z"/>
<path class="st0" d="M845,268c12-6.3,14.3-5.2,14.9-17.8c0.2-3.4,2.3-13.4-2.6-15.8c-9-4.6-2.9,11.3-3.9,14
	c-0.6,1.5-34.2,21.3-18.6,29.7C832,276.5,844.8,268.3,845,268z"/>
<path class="st0" d="M823,384c2.7,0.2,4.4-1.1,4.9-3.8c-6.4,7-12.1-2.7-17.8,8.1c-2.8,5.2-1.2,9.4,0.5,13.7c0.2,0,7.3-7.3,7.3-2
	c0,3.1,2.8-9.9,3.2-12.6c-0.9,0.1-7.8,0.4-8.2,0C812.9,382.1,816.2,381,823,384z M813.8,394.1C814.5,394.7,813.1,394.5,813.8,394.1z
	"/>
<path class="st0" d="M792.2,410.6c0,0,6.7,2.7,1.9-1.8c1.1-0.4-15.4-2.5-15.6-2.5c2.3-3.7-12.5-6.9-9,0.1
	C776.6,408.9,784.5,410.9,792.2,410.6z"/>
<path class="st0" d="M818,364.3c1.8-0.4,2.7-1.6,2.4-3.7c7.6,6.3,16.8-0.2,9.8-4.9C828.1,354.4,818,361,818,364.3z"/>
<path class="st0" d="M782.5,388.2c4,21.2,30.8-0.5,24.4-17.5c-3.9-10.2-6-4.3-14.9,3.4C789.9,375.9,771.9,384.6,782.5,388.2z"/>
<path class="st0" d="M742.5,336.9c2.6,11.4,7.2,39.2,21.8,43.3c7.2-7-25.8-28.6-11.9-35.8c5.5,8.9,21.5,19.9,26.6,2
	c4.2-14.6-20.8-19.5-4-29.6c1.2-0.7,12.7-1.4,17-3.7c9.3-4.9,18.9-13.8,19.8-25.8c0.2-3.2-2.1-9.6-3.2-12.2
	c-1.5-3.5-7.7-7.9-8.1-11.2c-0.8-5.2,7-4.8,6.9-8.9c0-0.8-27.4-5.4-8.3-12.5c4.6,8,6.3,0.6,11.4,3.6c1.6,0.9,0.3,5,1.9,6.5
	c4.7,4.6,2.3-4,6,1.1c3.9,5.5-4.6,12.3,5.1,9.3c3.3-1,3.6-4.2,4.9-4.2c-3.6-8.8-7.7-10.9-5.2-19.8c2.2-7.9,7.2-9.6,12.1-15.3
	c9.6-11.1,9-27.5,4.6-40.5c5.9,8.9,4.4,26.9,15.8,25.8c0.5-0.6-5.8-12.5-6.2-14.4c5.4-2.9-11.7-26.7-12.4-26.4
	c1.3-0.6-0.9,5.8-0.6,4.6c-4.8-5.3-8-4.8-13-1.5c-0.8-1.1-1.4-5.3-0.6-4.9c-1.1,0-2,0.4-2.6,1.2c-9.4-8.2,10.6-29.3,18.7-31.7
	c1.7-0.5,18.3,0.5,18.1-3.9c-0.2-3.4-6.9-5.3-2.5-12.3c5.1-8.3,6.9-0.7,12.2-0.2c2.7,0.3,2.1-6.2,4.9-6.2c0.5,9.7-3.1,22.1-2.7,29.4
	c0.3,5.4,7.1,37,15.5,35.4c2.8-0.5,4.7-31.2,4.7-31.9c0.3-8.7-10.4-8.8-10.2-20c0.2-9.9,9.9-6.9,17.1-8.4
	c-1.5-9.9,9.7-18.7,9.9-21.8c0.3-5-2.4-4-3.6-9.3c-1-4.6-12.6-17.6-9.2-21.9c-0.3,0.5,19.7,1.1,19.5-1.6c0,0.3-5.6-15-4.6-13.7
	c-5.7-7-5.9-1.2-12.3-1.4c-4.2-0.2-7.5-2.3-11.8-2.7c-10.7-0.9-24-5.9-34.5-0.8c-4.7,2.3,6,7,4.4,10.5c-0.7-0.6-9.4-7.5-11.8-6.8
	c1.9,4.8-6,4.8-8.2,5.7c-7,5.8-6.8-0.4-12.4-0.7c-7.6-0.4-17.1,0-24.8-1.1c-2.4-0.3-34-9.8-32.8,2.3c0.1,0.6,5.1,1,3,3
	c2.9-2.7-8.3,8.2-6,4.9c-1.7,2.5-8,0.9-9.6,2.2c-0.9,0.8,1.3,9,0.6,7.3c-4.1-1.4-8.1-3.3-11.8-5.6c-0.3-3.3,1.7,0.7,1.8-1.8
	c0.4-16.5-24.5-2-26-1.5c1.4-0.5-34.7,2-30.3,7.5c0-9.4,8.1-14.9,3.2-23.2c-7.2-12.1-10.9-3.3-17.3-4.9c-1.9-0.5-8.5-4.9-8.6-4.8
	c-6,1.8-5.7,13.3-4.2,13c0,6.1-24.2,8.2-24.7,22.9c1.5,0.5,6,1.5,4.9,4.2c-23.3,2.5-1.5,15.4-4,16.4c-3.3,1.3-8.8-3.6-11.7-3.8
	c-0.6,1-0.7,4.6-1.5,5c-1.4-1.5-2.3-0.6-3.6-2.6c-0.5,4.5-3.5,7.5,0.1,11.9c-6.2-6.3-7.7-19-14.1-7.8c-3.4,6-0.5,17.5,4.7,21
	c-3.3-1.4-24-5-24-4.9c0.1,2,8.9,4.2,6.1,7.7c1.3-1.5-35.2,10.7-30.9,13c-4-2.2,3.5-8.3-7.4-6.4c-0.8,0.1,3.4,9.7,0.2,10.5
	c-1.2,0.3-11.6-9.8-13.3-10.9c-7.6-4.9-22.1-12.2-31.7-11.7c-12.5,0.7-20.5,10.9-25.5,19.8c-3.3,5.9-5.3,11.8-10,17.9
	c-5.4,7.2-11.6,9.2-12.4,18.1c-0.8,9.8,5.8,19.5,15.2,10c-0.7,7.2,11,10.1,1.3,13.3c0.3-1.6,1.6-10-2.9-8.5c-6.7,2.2-2.3,8-4.3,11.2
	c-2.8,4.3-9.8,14.1-17,15.7c-3-5-4.7-10.9-7.7-16.9c-8-16-6.9-17.6-16.1-1.8c-2.2,3.8-13,12.4-6.8,17.6c7.2,6,14.3-7.8,16.1-12.7
	c1.9,0.9,0.8,0.2,2.8,2.1c-5.4,4.3-12.5,22.5,2.4,16.5c-1,1.2-7.8,2.3-6.7,5c0.1,0.3,7.9,12.1,7.9,11.1c-0.5,7-0.5,5.3-5.6,7.7
	c-11.3,5.2-15.1-5.2-16.3,13.3c-0.3,4.8-2.3,2.3,0,7.5c0.5,1.1,8.4,8,8.4,8.2c0.2,6.7-12.3,18.9-15.7,23.9
	c-9.3,13.6-21,26.4-17.4,44.7c2,10.1,11.9,20.9,22.3,26.9c0,1.8,1.4,2.9,4.2,3.2c7.6-1,24.9-5.7,32.3-4.8c1.3,0.2,16.5,5.5,16.4,5.5
	c5.1,5.3,3,28.1,11.4,28.1c-1.3,0,1.6,3.3,1.6,2.4c0,3,1.8,7.3,2.1,10.6c0.8,9-3.9,13-4.1,21.3c-0.3,9.5,7.6,36.3,14.1,43.4
	c-0.1-0.4,0-0.5,0.3-0.4c-4.8,5.5,5.8,16.1,9.1,17.3c11.3,4.3,25.5-7.4,31.6-15.5c3.7-4.8,11.3-14.2,12.9-18.7
	c0.3-0.8-1-12.4,1-14.3c3.2-2.4,6.3-4.9,9.3-7.5c17.2-3.9,2.4-29.3,6.4-40.2c3.3-9,15.4-16.1,21-22.2c4.9-5.3,7.7-5.7,10.6-14
	c7.8-22-3.9-6.2-19.8-10.6c3.2-5.3,16.2-5.1,16.2-11c1.9,3.6,20.5-10.2,22.6-12.3c11.8-11.3,6.3-13.3-2.9-21.3
	c-0.2-0.9,1-3.4-0.8-3.8c-0.8-0.2-4.9,8.2-7.3,8c-7.8-0.8-5.3-7-8.3-7.5c-1.8,6.6-7.6-9.5-9.2-10.9c4.2-6.1,9.3,5,14.3,7.6
	c6,3.1,17.3,5.2,23.3,6.2c9.7,1.7,16.8,3.5,25.3,7.6c10.3,5,8,7.1,13.1,14.3c5.4,7.6,7.9,35,19.5,31.7c8.3-2.3,7.8-21.9,11.7-27.8
	c4.4-6.7,16.4-19,25.5-15.6c4.5,1.7,6.1,16.5,9,18.9C735,336.2,741.3,331.6,742.5,336.9z M623.7,130.8c2-2.3,3-8.1,1.8-11.2
	C627.5,122.1,626,128.4,623.7,130.8z M539.5,246.6c-15.9,7-12.9-12.9-0.8-14.3c0,0,7.3,4.9,6.8,4.6c3.6,1.6,22.8,2.3,19.4,11.4
	C557,248.8,546.8,243.5,539.5,246.6z M600.7,264.6c-12,2.9-21.9-39-9.1-34.3C587.4,237.1,605.3,263.5,600.7,264.6z M546.1,233.8
	c-0.9-3.7,5-4.1,8-5.8C553,231.9,550.4,233.8,546.1,233.8z M512,249.5C511.4,249.2,513.1,249.2,512,249.5z M529,157.8
	C528.9,157.8,529,157.8,529,157.8z M559.4,287.1C559.4,287.1,559.4,287.1,559.4,287.1z M560.3,287C560.2,287,560.4,287,560.3,287z
	 M556.6,184.4C556.6,184.4,556.3,184.4,556.6,184.4z M554.3,227.9c0.1-0.1,0.2-0.1,0.3-0.1C554.5,227.8,554.4,227.8,554.3,227.9z
	 M544.6,146.6c-1.9,0.3-4.3-2.1-6.9-1.8C539.1,143.9,543.9,145.1,544.6,146.6z M509.2,463.9C509.2,463.9,509.2,464,509.2,463.9
	C509.2,463.9,509.2,463.9,509.2,463.9z M448.2,348.7C448.3,348.7,448.3,348.7,448.2,348.7z M800.3,277.9
	C800.3,277.8,800.3,277.9,800.3,277.9z M485.3,194.2c7.1-3.2,4.9-5.8,6.6-12c1.4-2,2.8-4,4.1-6.1c-1.8-2.3-3.1-4.8-4-7.5
	c1.1-6.6,7.5-18.7,12.8-23.1c1.7,7.3-5.3,11.2-4.4,18.9c1.2,10,10.7,14.5,19.6,7.3c2.3,4.8-10.7,3.4-14.8,8.4
	c-1.3,1.6-3.8,13.8-1.9,15.3c-3.2,2.9-19.7,3.4-23.5,3.5C480.6,197,484.8,195.5,485.3,194.2z M436.8,268.8
	c13.8-0.3,16.6-20.2,29.9-24.2c7.6-2.3,3.6-4.1,9.5-1.7c-0.1,0,10.9,9.6,10.5,8.8c2,4.9-6,13.4,0,14c8.2,0.8,9.4-6.8,11.5-12.3
	c0.6-1.5-19.3-12.1-15.4-16.9c5.7,7.9,14,7.5,19.4,14.5c4.2,5.4,2,6.7,2.3,11.2c2.7,0,5.7,5,7.8,4.8c3.1-0.4,2.8-4.9,5.9-4.9
	c1.7-1.6-3.9-3.3-3.9-6.3c0-1,7.9-3.3,7.7-3.4c-12.5,19.1,27.7,14.4,30.2,17.5c-1.8,0.9-1.7,13.2-5.8,15.6c-4.3,2.4-19.8-0.8-25-1.6
	c-4.4-0.6-7.4-4.5-12.2-3.7c-4.8,0.8-1.2,8.8-6.2,8.4c1.4-3.7-23.7-10.5-24.7-11.6c-0.9-0.9,5.1-7.1,2.4-9.9
	c-3.9-4.1-8.8-1.6-13.8-1.5C461.1,265.5,432.5,271,436.8,268.8z M573.4,339.8c-7.4-4.8-25.8-42.6-22.7-43.2
	c8.3,15.9,20.6,29.1,26.6,44.8C575.9,341,574.6,340.5,573.4,339.8z M621.3,114c2,3.8,4.7-0.1,6.7,0.7
	C620.8,116.5,622.8,116.8,621.3,114z M629.8,288.5C629.8,289.6,628.9,289.8,629.8,288.5z M636.5,74.3c-0.1,0.1-0.3,0.1-0.4,0.2
	C636.2,74.3,636.4,74.3,636.5,74.3z M617.7,108.1c2.3-3.5,0.3-2.5,2,2.5C617,109.6,616.4,108.8,617.7,108.1z"/>
<path class="st0" d="M388.8,127.2c10.1-3.2,8.4-11.9,8.4-19.7c0-3,5-6.8,5-8.2c12-13,3-11.2,1.6-23.1c0.5,0,5.6,0.6,6-1.2
	c0.5-2.3-1.5-10.2-0.8-14.1c1.1-6.5,5.3-10.6,7.6-14.7c1-1.7,5.3-4,5.6-5.7c1.4-7.9-4-11.7-12.7-3.8c-1.7-0.9-0.4-2.3-0.8-3.4
	c0.7-0.9,0.6-2-0.4-3.4c-0.2-0.1-8.9,2.9-9.1,2.9c-0.1-8,12.7-3.8,12.7-9.8c0-0.7-9.5-6.8-9.6-6.8c-10.5-7.9-20.1-7.3-33.8-2.5
	c0.3,1.6,1.1,2.6,2.2,3c-4.6,0-4.7,3.5-4.7,6.7c0-0.9-1,4.4-1,3.5c0-1.6-5.3-8.3-6.5-8.3c-0.2,1.6,0,9.4-4.4,7.1
	c0-16.1-1.2-0.6-8.8-8.1c-7.5-7.4-12.3-14.4-24.8-17.2c-10-2.2-26,4-37.9,6.6c0,0.1-0.1,12.6-2.5,13.3c-4.2-3.2,1-9.5-3.6-11.1
	C269.3,6.8,265,29,264.9,30.5c-0.2,2.6-4.4-0.3-2.7,5.8c1.9,6.9,4.7,1.9,7.9,5.9c6.9,8.6-17.1,7.6-17.6,7.7c-8.5,1.8,0.1-7.3-4,3.4
	c1.4-3.6,0.7,15.3-0.9,12.5c2.5,4.6,16.4,11.3,22.3,9.4c1.2-0.4,5.8-3.3,6.1-4.9c1.7-10-11.7-6.7-17.1-9.4
	c0.8-5.3,21.2,2.3,24.2,1.2c3.1-1.2,1.2-4.2,2.7-5.3c1.5-1.1,8.6-5.9,10.9-7.9c4.7-3.9,7.5-8,12.1-11.4c3.3-2.4,12.2-4.9,13.5-9.6
	c0.3,0.4,0.7,0.6,1.2,0.7c-10.2,2.6,0.1,9.6-3.3,12.3c-0.8,0.6-34.7,5.5-16.9,15.6c-21.4,3,15.8,16,14.7,14.8
	c3.8,4,7.6,29.6,1.9,32.7c1.5,2.9,8.3,1.3,5.8,7.3c-10-8.4-11.9,25.8-11.8,29.6c0.2,7.8,9.2,32.6,18.3,31.7
	c8.7-0.8,12.9-18.4,19.3-24.5C361,139.2,376,132.7,388.8,127.2z M330,25.9c1.5-1.4,3.3-2.6,5.2-3.4C333.5,25.5,332.4,25.9,330,25.9z
	 M400.5,76.4C400.7,76.2,400.7,76.6,400.5,76.4z M303.6,3.1C303.5,3.1,303.2,2.8,303.6,3.1z"/>
<path class="st0" d="M771,394c2,1-27.9-33.1-32.8-26.5c-2.4,3.3,23.3,36.3,31.9,34.5C770.4,399.4,770.7,396.7,771,394z"/>
<path class="st0" d="M516.8,272.9C516.7,272.9,516.7,272.9,516.8,272.9z"/>
<path class="st0" d="M342.4,398.8c-7.3-2.2-15.2-6-22.7-8.4c-4.5-1.5-12.5-3.4-16.1-6.5c-4-3.3-5-10.3-9.5-13.8
	c-7.1-5.6-15.7-8-23.6-11.6c-5.9-2.7-8.8-6.4-16.7-8.3c-6.4-1.6-11.8-1.5-18.1-1.8c7.5-4-10.3,0.4-8.5,0c-4.9,1.3-5.7,5-10,6.5
	c-3,1-13.1,1.6-16-0.9c-3.9-3.5,0.6-8.2-1.5-11.7c0-1.8,0.1-3.5,0.1-5.3c-4.3-2.7-9.1-3.3-14.2-1.9c-3.2-4,7.9-16.9,4.1-19.1
	c-9.6,1-16.9,16.3-27.3,5.7c-7.2-7.2-3.5-25.6,4.8-30.2c3-1.7,18-4.5,21.8-4.3c8.6,0.4,9.3,1.1,15.2,6.1c1.2,1,1.9,10.8,5.4,10.8
	c4.2,0-2.8-22.2,6.5-26.2c3.3-1.3,7.9-4,10.7-6.6c7.3-6.7,14.3-24.3,24.3-29.9c2.6-1.5,32.1-9.1,28.4-14.1c-1.8-2.5-5.1,4-9-0.3
	c-3.8-4.2,3.7-13-5.5-12.1c5.6-5.2,6.1,3.4,10.1,2c1.2-0.4,8.8-5.8,13.2-7.3c3.2,7-5.9,6.5-4.7,10.8c0.2,0.6,11,10.3,15,7.3
	c5.5-4.1,0.4-5.9,0-11.2c-3.8-1.3-4.8-3.8-3-7.4c0.5-1.5,0.9-3,1.4-4.4c-1.1-4-0.4-6.7-4.3-9.8c-12-6.5-4-24.5-13-30.4
	c-1.3,3.4-5.2,11.8-10.5,9.1c-5.5-2.8,0.2-9.1-1.9-12.8c-4.8-8.6-13.7-11.7-19.9-5.9c-5.7,5.3-1.4,18.6-3.6,23.1
	c-1.1,2.2-6.6,8.9-6.5,8.6c-0.8,2.3-5.8,18.7-9.3,16.8c0.2-1,0.1-15.8-0.7-17.1c-5.4-8.9-21.6-7.9-24.4-20.5
	c-4.4-20.1,29.1-24.2,29.1-30.1c0,9.8-3.4,3.9,2.3,7.5c0.3,0.2,10.2,2.3,12.6,0.3c2.6-2.1-5.1-9.6-4.9-10.1c1.6-3.9,7.9-6,10.5-9.5
	c0.4-0.5,0.2-4.7,2-7.1c2.2-2.8,7.1-6.8,9-9.8c-2.9,5-0.5,14.9,0,16.4c1,3.2,9-7,6.1,4c-2.6,3.2-16.5,12.8-16.5,12.8
	c0,0,25.9,15.4,24.9,16.4c0-1.6,0.4-3,1.3-4.3c9.8,10.2,3.9-13.7,4.1-15c3.7,2,11.2,10.6,13.3-3.3c0.9-5.8-9.4-8.8-11.2-13.9
	c-1.1-2.9,3-9.6,1.1-14.6c-1.2-3.1-8.4-11.5-10.7-14.4c-7.5-9.4,1.5-5.9-10.8-11.3c-8-3.5-13.7-4.5-21,3.3
	c-12.4,13.2,10.3,27.4-8.8,34.3c-0.9-2.1,0.5-8,0.5-8.8c0-5.1-7.3-14.2-2.8-22.6c2.3-4.2,12.7-5.6,13.1-10.7
	c0.7-10.9-15.3,2.8-15.7,2.5c-5.5-4.5,6.7-12.5-7.8-6.3c-7.4,3.2-3.2,8.1-3.2,17.5c0,9.1-2,7.8-9,14.6c-1.5,1.4,0,6.9-3.3,7.5
	c-6.9,1.3-5.9-5-11.5-5.8c0-0.1,0-0.1,0-0.2c2.4-1.1,13.1-1.5,8.5-6.1c10.6,0.6,1.9-9.8,2.2-13c0.4-3.8,10.9-16,9.1-17.8
	c-6.4-3.4-10.9,1.6-13.2,7.5c-1.2-0.8-1.9-1.8-2.3-3.2c0,13-13.7-20-10.9-15.6c0-10-25.1-0.3-26,8.9c-1.2,11.6,7,6.1,12.1,5.7
	c-3.7,8.3-1.5,7-0.5,13.6c-5,2.5-4.4,2.1-4.4,6c0,10.5,15.5,8,16.3,13.6c-0.9,0.3-2.4,1.7-2.8,2.6c-6-3.2-29.4-17.6-30.7-23.9
	c-7.2,1.5-5-4.6-5.2-4.6c-5.4,1-13.2,0.5-18.2,0.1c-8.5,2-24.8-12.9-33.7-19C82.7,47.7,83.3,48.3,63.7,55
	c-8.5,2.9-28.7,13.2-13.6,26c-3.6,2.6-23.5-9.7-21.7,6.2c1.3,11.6,12.8,2.9,14.1,5.4c1.7,3.4-45.7,22.1-20.3,32.4
	c-5.9,13.9,13.5,4.1,0,19c-2.9,3.1-21.3,13-22.2,12.6c2.3,1.1,20-6.8,21.9-7.5c2.7-1,5.3-4.5,8.2-5.3c7-1.9-0.1,6.9,11.6,0.1
	c-1-3.5-3.4-0.4-5.1-2.1c1.8-0.9,11.6-10.4,11.8-10.6c2.2,1.2-1.5,4.1-1.8,4.5c5.3,3.2,11.4-4.1,15.5-3.4c2.9,0.5,11.8,6.7,13.9,8.8
	c3.5,3.6,12.3,14.9,9.6,20.8c-2.9,6.3,3.3,5.6,4.5,8.7c2.1,5,2.9,5.7,3.4,13.8c0.1,1.9-2,10.9-1.9,11.2c1.6,9.2,6.1,12.4,5.2,22.9
	c-1.3,16.6-8.9,22-3.5,38c2.4,7.2,5.2,8.7,9.2,15.2c2,3.2,15.4,42.2,20.3,38.7c2.8-2-20.7-36.9-6.8-26.5
	c2.4,1.8,13.5,22.1,15.2,25.6c4.7,9.7,3.5,14.3,13.9,20.4c6.7,4,14.1,3.1,20.6,5.5c8.6,3.2,23.7,10.5,27.8,18.1
	c3.9,1.3,6.1,4,10.4,5.3c1.2,0.4,8.9-0.3,10,0.6c10.7,16.2-12.7,28.2-7,45.1c2.9,8.6,21.2,36.5,31.8,36.5c3.3,9-3,88.5,1.5,88.7
	c-0.1-2,0.1-4,0.8-6c0.3,0.1,0.6,0.1,1-0.3c-1.6,3.5-4.3,28.6,0,28.6c-1.9,0,8,14.7,8,12c-0.6,6.5,5.2,9.8,10.3,10.2
	c1.1,1.1,2,2.4,3.8,2.9c1.7,3.1,4.5,2.7,8.2-0.6c0.1-1-6.5-4.5-7.3-4.8c-2.8-4-4.6-7.3-4.5-11.8c0.1-4.9,4.2-7.4,4.5-11.8
	c0.2-3.3-5.3-5.7-5-8c0.6-4.1,9.2-14.5,8.5-15.4c-9.5-13,20.9-8.5,14.4-27.8c16.8,3,23.9-29,32.3-36.3c11.3-9.8,15.8-3.6,21.1-22.6
	c2.2-8,3.5-12.4,6.4-20.1C344.2,413.6,351.7,401.6,342.4,398.8z M146.3,107.7c2.3,0.1,8,3.8,8.1,4.7c-2.2,0.7-10,3.5-12.2,2.8
	C147.3,111.1,142.1,109.7,146.3,107.7z M209.3,217.9c-2.3,4.7-6.1,0.8-9.8,0.8C205.3,213.6,205.4,218,209.3,217.9z M163.5,175.9
	C163.2,175.8,163,175.5,163.5,175.9z M158.5,140.8c-3.4,2-5.3,1.1-9.5,2.7C147.2,145,157.3,137.8,158.5,140.8z M202.9,231
	C200.8,237.4,204.1,229,202.9,231z M189.9,183.3C189.7,183.2,190.3,183.3,189.9,183.3z M215.8,232.5c-0.8-2.6,0.3-3.7,3.1-3.3
	c0.1,0.1,0.2,0.3,0.2,0.4C218.1,230.5,216.9,231.5,215.8,232.5z M143.1,308c0.1,0.2,0.1,0.4,0.1,0.5
	C143.1,308.4,143.1,308.2,143.1,308z M264.2,106C264.3,106.1,263.5,107.1,264.2,106z M288.4,109.6c0-0.1,0.1-0.2,0.2-0.3
	C288.5,109.3,288.5,109.5,288.4,109.6z M219.6,109.3C218.3,110.7,216.2,109.1,219.6,109.3z M182.2,68.2
	C182.3,68.1,182.7,68,182.2,68.2z M85.4,157.9c0.2,0.2,0.3,0.4,0.3,0.6C85.6,158.3,85.5,158.1,85.4,157.9z M257.4,568
	C257.5,567.9,257.6,567.9,257.4,568z M283.5,456.5C283.9,456.6,283.3,456.7,283.5,456.5z M283.7,456.6
	C283.7,456.6,283.2,457.1,283.7,456.6z M233.5,350.4C233.5,350.4,233.4,350.4,233.5,350.4L233.5,350.4z M242.5,421.2
	C242.8,421.5,242.6,421.8,242.5,421.2z"/>
<path class="st0" d="M232.6,327.4c2.4,2,11.9,0,13.1-1.8c-2-1.2-11.2-7-13.8-3.7c0.8-1,0.4,6.6,0.6,4.4c-1-0.1-5.2-1.2-5.5,0
	C228.8,327.4,230.6,327.7,232.6,327.4z"/>
<path class="st0" d="M224.3,321.9c6.7-1.8-1.4-3.5-2.8-4.9C216,310.9,212.1,325.3,224.3,321.9z"/>
<path class="st0" d="M202.9,311.6c-3.8-0.2-4.9,0.9-3.4,3.3c6.1-4.1,8.7,2,16,0.1C212.4,312.3,207.4,309.8,202.9,311.6z"/>
<path class="st0" d="M584,433.2c-2.9,0.6-4,3.3-3.9,5.8c1.2,7-9.2,25.5,5.7,22.3c6.4-1.4,17-32.4,10.7-39.3
	C593.3,426.7,590.1,432,584,433.2z"/>
<g>
	
		<image style="overflow:visible;enable-background:new    ;" width="52" height="52" xlink:href="DE11EE01.png"  transform="matrix(1 0 0 1 180.86 224.3528)">
	</image>
	<g>
		<circle class="st1" cx="206.7" cy="244.5" r="13.4"/>
	</g>
</g>
<g>
	
		<image style="overflow:visible;enable-background:new    ;" width="51" height="51" xlink:href="DE11EE03.png"  transform="matrix(1 0 0 1 328.86 111.3528)">
	</image>
	<g>
		<circle class="st1" cx="354.3" cy="130.8" r="13.4"/>
	</g>
</g>
<g>
	
		<image style="overflow:visible;enable-background:new    ;" width="53" height="53" xlink:href="DE11EE06.png"  transform="matrix(1 0 0 1 493.86 466.3528)">
	</image>
	<g>
		<circle class="st1" cx="520.2" cy="486.6" r="13.4"/>
	</g>
</g>
<g>
	
		<image style="overflow:visible;enable-background:new    ;" width="51" height="52" xlink:href="DE11EE07.png"  transform="matrix(1 0 0 1 468.86 194.3528)">
	</image>
	<g>
		<circle class="st1" cx="494.3" cy="214.3" r="13.4"/>
	</g>
</g>
<g>
	
		<image style="overflow:visible;enable-background:new    ;" width="51" height="52" xlink:href="DE11EE02.png"  transform="matrix(1 0 0 1 679.86 277.3528)">
	</image>
	<g>
		<circle class="st1" cx="705.4" cy="297.6" r="13.4"/>
	</g>
</g>
<g>
	
		<image style="overflow:visible;enable-background:new    ;" width="53" height="53" xlink:href="DE11EE0D.png"  transform="matrix(1 0 0 1 863.86 473.3528)">
	</image>
	<g>
		<circle class="st1" cx="889.8" cy="493.6" r="13.4"/>
	</g>
</g>
</svg>
